#!OML:ASF X:\für Bonn\!DataBase\2005_08_12_Daniel\c3d\Daniel.ASF
:FULLY-SPECIFIED
:DEGREES
31
root 1.55261 17.0112 0.335319 734.829 -92.1379 -747.341
lowerback 14.3892 -2.16715 2.82705
upperback 4.47566 -2.86258 -3.56883
thorax -3.64015 -1.51986 -4.85816
lowerneck 8.69221 2.95477 1.56473
upperneck 27.0812 2.29772 0.0464894
head 6.94222 0.576416 -0.265213
rclavicle -1.09332e-015 7.95139e-016
rhumerus -109.456 167.753 123.136
rradius 32.1559
rwrist 354.678
rhand -30.8394 9.80619
rfingers 7.12502
rthumb -4.1281 -20.1336
lclavicle -1.09332e-015 7.95139e-016
lhumerus 60.068 -7.52685 47.6488
lradius 55.0632
lwrist 29.0917
lhand -29.2346 2.10861
lfingers 7.12502
lthumb -2.57826 32.0728
rfemur 10.2389 14.3927 12.9714
rtibia 19.9044
rfoot -23.8791 -18.7856
rtoes -12.6885
lfemur 2.02339 -14.829 -18.0628
ltibia 34.3181
lfoot -27.9772 7.17966
ltoes -0.685949
32
root 1.5352 17.0117 0.331987 733.848 -92.1442 -746.328
lowerback 14.6352 -2.19585 2.79671
upperback 4.21048 -2.89605 -3.59556
thorax -4.05717 -1.54396 -4.85273
lowerneck 9.81211 2.98026 1.88
upperneck 27.2846 2.24421 0.0867828
head 6.83976 0.547518 -0.320695
rclavicle -6.23687e-015 1.19271e-014
rhumerus -106.709 170.768 125.695
rradius 31.3775
rwrist 355.181
rhand -30.9421 10.5484
rfingers 7.12502
rthumb -4.2272 -19.3894
lclavicle -6.23687e-015 1.19271e-014
lhumerus 62.3173 -4.74454 45.4747
lradius 54.2305
lwrist 27.6727
lhand -29.2311 1.92651
lfingers 7.12502
lthumb -2.57491 31.8907
rfemur 10.28 14.4991 13.0613
rtibia 19.91
rfoot -24.0203 -18.8278
rtoes -12.6327
lfemur 2.03709 -14.7703 -18.0001
ltibia 34.3407
lfoot -27.9787 7.12095
ltoes -0.699952
33
root 1.51725 17.012 0.32851 733.337 -92.148 -745.771
lowerback 14.902 -2.22246 2.71302
upperback 3.92994 -2.93471 -3.61509
thorax -4.50021 -1.57058 -4.80749
lowerneck 11.1005 2.97213 2.30782
upperneck 27.3382 2.19303 -0.017912
head 6.66762 0.521781 -0.443414
rclavicle -3.45637e-014 1.66979e-014
rhumerus -104.504 174.029 129.13
rradius 30.9354
rwrist 354.178
rhand -31.1318 11.152
rfingers 7.12502
rthumb -4.41042 -18.7821
lclavicle -3.45637e-014 1.66979e-014
lhumerus 64.4536 -1.83712 43.3522
lradius 53.0291
lwrist 26.1779
lhand -29.1205 2.0957
lfingers 7.12502
lthumb -2.46805 32.0612
rfemur 10.2991 14.4938 13.0971
rtibia 19.9168
rfoot -24.0481 -18.8377
rtoes -12.6727
lfemur 2.03722 -14.7014 -17.945
ltibia 34.3658
lfoot -27.9688 7.06062
ltoes -0.684844
34
root 1.49859 17.012 0.324568 732.819 -92.1599 -745.204
lowerback 15.1825 -2.2375 2.5745
upperback 3.64746 -2.96727 -3.62327
thorax -4.9497 -1.59317 -4.71972
lowerneck 12.7004 2.91816 2.83248
upperneck 27.159 2.12759 -0.223538
head 6.37728 0.492536 -0.616506
rclavicle 2.98177e-016 -3.49861e-014
rhumerus -103.06 177.574 133.062
rradius 30.8843
rwrist 352.139
rhand -31.2719 11.4916
rfingers 7.12502
rthumb -4.5457 -18.4397
lclavicle 2.98177e-016 -3.49861e-014
lhumerus 66.4025 1.17535 41.1454
lradius 51.5713
lwrist 24.661
lhand -28.8827 2.41474
lfingers 7.12502
lthumb -2.23841 32.3827
rfemur 10.3168 14.5296 13.1375
rtibia 19.9175
rfoot -24.1317 -18.8164
rtoes -12.6332
lfemur 2.03695 -14.6473 -17.8979
ltibia 34.3879
lfoot -27.9622 6.99905
ltoes -0.748317
35
root 1.4801 17.0134 0.321064 732.793 -92.1667 -745.108
lowerback 15.5006 -2.25536 2.39778
upperback 3.33249 -3.01001 -3.6218
thorax -5.45377 -1.62007 -4.59647
lowerneck 14.4648 2.84411 3.3551
upperneck 26.8741 2.05906 -0.448386
head 6.03495 0.459757 -0.794128
rclavicle 1.73937e-015 1.51076e-014
rhumerus -102.338 181.216 136.734
rradius 30.9476
rwrist 350.05
rhand -31.379 11.6807
rfingers 7.12502
rthumb -4.6491 -18.2483
lclavicle 1.73937e-015 1.51076e-014
lhumerus 68.0788 4.30097 38.7358
lradius 49.9905
lwrist 23.4669
lhand -28.6339 2.70138
lfingers 7.12502
lthumb -1.9981 32.6718
rfemur 10.3011 14.4836 13.1311
rtibia 19.9178
rfoot -24.1193 -18.7869
rtoes -12.6703
lfemur 2.01511 -14.6006 -17.8644
ltibia 34.4086
lfoot -27.9598 6.95473
ltoes -0.802142
36
root 1.46138 17.0154 0.317501 732.548 -92.1537 -744.796
lowerback 15.8659 -2.27549 2.23867
upperback 2.99827 -3.05622 -3.63521
thorax -6.00728 -1.64871 -4.49735
lowerneck 16.3167 2.72474 3.97625
upperneck 26.5487 1.96693 -0.720943
head 5.67767 0.421373 -1.00196
rclavicle -2.03754e-014 8.74653e-015
rhumerus -102.073 184.741 139.247
rradius 30.8248
rwrist 349.023
rhand -31.3197 11.691
rfingers 7.12502
rthumb -4.59181 -18.2393
lclavicle -2.03754e-014 8.74653e-015
lhumerus 69.4391 7.50822 35.9238
lradius 48.3118
lwrist 22.7854
lhand -28.4166 2.76555
lfingers 7.12502
lthumb -1.78831 32.7378
rfemur 10.3132 14.4924 13.1634
rtibia 19.9161
rfoot -24.2125 -18.7653
rtoes -12.6178
lfemur 1.9951 -14.5688 -17.8166
ltibia 34.4196
lfoot -27.9546 6.9032
ltoes -0.89706
37
root 1.44159 17.018 0.313298 732.646 -92.1522 -744.814
lowerback 16.2445 -2.28523 2.04237
upperback 2.63868 -3.09584 -3.62963
thorax -6.5934 -1.67208 -4.35756
lowerneck 18.3204 2.58448 4.52702
upperneck 26.1025 1.86484 -0.969069
head 5.26824 0.372914 -1.18677
rclavicle -2.32951e-016 -1.98785e-014
rhumerus -101.963 188.119 140.792
rradius 30.4292
rwrist 349.097
rhand -31.2152 11.4684
rfingers 7.12502
rthumb -4.49092 -18.464
lclavicle -2.32951e-016 -1.98785e-014
lhumerus 70.2602 10.7725 32.8239
lradius 46.791
lwrist 22.6818
lhand -28.1528 2.70862
lfingers 7.12502
lthumb -1.53352 32.6829
rfemur 10.3133 14.4847 13.1691
rtibia 19.8928
rfoot -24.2601 -18.7572
rtoes -12.6818
lfemur 1.95721 -14.4827 -17.7613
ltibia 34.4292
lfoot -27.9073 6.84757
ltoes -0.980184
38
root 1.41908 17.0205 0.309384 732.419 -92.1503 -744.485
lowerback 16.5774 -2.29305 1.83824
upperback 2.29119 -3.13515 -3.59961
thorax -7.14149 -1.69226 -4.18839
lowerneck 20.4356 2.44393 5.02612
upperneck 25.5298 1.78487 -1.19911
head 4.81441 0.332624 -1.35354
rclavicle -9.01364e-015 -3.73715e-014
rhumerus -102.128 191.477 142.231
rradius 29.9989
rwrist 349.482
rhand -31.0634 11.0461
rfingers 7.12502
rthumb -4.34432 -18.8893
lclavicle -9.01364e-015 -3.73715e-014
lhumerus 70.4875 14.1103 29.7067
lradius 45.4874
lwrist 22.8611
lhand -27.6522 2.51737
lfingers 7.12502
lthumb -1.04997 32.4945
rfemur 10.3145 14.4887 13.1948
rtibia 19.8578
rfoot -24.2768 -18.7801
rtoes -12.6449
lfemur 1.92912 -14.4553 -17.7109
ltibia 34.4296
lfoot -27.8925 6.77629
ltoes -0.967139
39
root 1.39516 17.0232 0.30544 732.632 -92.1512 -744.605
lowerback 16.867 -2.29437 1.63383
upperback 1.99866 -3.17131 -3.58974
thorax -7.60902 -1.70893 -4.04307
lowerneck 22.585 2.26769 5.54075
upperneck 24.8564 1.69474 -1.44465
head 4.33683 0.290809 -1.52398
rclavicle 2.47114e-014 -1.66979e-014
rhumerus -102.795 194.871 144.197
rradius 29.6331
rwrist 349.644
rhand -31.1314 10.4014
rfingers 7.12502
rthumb -4.41003 -19.5327
lclavicle 2.47114e-014 -1.66979e-014
lhumerus 70.2109 17.4286 26.686
lradius 44.4193
lwrist 23.2095
lhand -26.9982 2.28132
lfingers 7.12502
lthumb -0.418329 32.2607
rfemur 10.3367 14.5233 13.211
rtibia 19.8128
rfoot -24.3586 -18.7809
rtoes -12.6749
lfemur 1.92188 -14.4687 -17.6912
ltibia 34.4202
lfoot -27.9119 6.71432
ltoes -0.973011
40
root 1.36899 17.0267 0.30162 732.764 -92.1598 -744.622
lowerback 17.0697 -2.28973 1.44561
upperback 1.7526 -3.19833 -3.57644
thorax -7.97944 -1.71924 -3.90795
lowerneck 24.7098 2.08348 5.98154
upperneck 24.0979 1.61025 -1.67837
head 3.84677 0.249534 -1.67456
rclavicle 1.31943e-014 8.74653e-015
rhumerus -104.013 198.271 146.767
rradius 29.3917
rwrist 349.449
rhand -31.3437 9.55296
rfingers 7.12502
rthumb -4.61505 -20.3768
lclavicle 1.31943e-014 8.74653e-015
lhumerus 69.5364 20.7453 23.7605
lradius 43.4728
lwrist 23.7204
lhand -25.9883 2.05268
lfingers 7.12502
lthumb 0.557081 32.0317
rfemur 10.3504 14.6032 13.2395
rtibia 19.7684
rfoot -24.4656 -18.8029
rtoes -12.685
lfemur 1.90016 -14.4465 -17.656
ltibia 34.3986
lfoot -27.9038 6.6299
ltoes -0.913474
41
root 1.34237 17.0308 0.296952 733.668 -92.1522 -745.389
lowerback 17.1896 -2.29098 1.24737
upperback 1.55331 -3.23638 -3.56466
thorax -8.25431 -1.73271 -3.76833
lowerneck 26.8177 1.90929 6.33723
upperneck 23.2531 1.54533 -1.88628
head 3.34282 0.215007 -1.80021
rclavicle -4.33351e-014 -3.02153e-014
rhumerus -105.6 201.579 149.582
rradius 29.0915
rwrist 349.18
rhand -31.6498 8.72868
rfingers 7.12502
rthumb -4.91058 -21.1944
lclavicle -4.33351e-014 -3.02153e-014
lhumerus 67.9946 24.0259 19.9887
lradius 42.6782
lwrist 25.1431
lhand -25.038 1.79398
lfingers 7.12502
lthumb 1.47491 31.7686
rfemur 10.3607 14.6784 13.2477
rtibia 19.7068
rfoot -24.5962 -18.8439
rtoes -12.7101
lfemur 1.86501 -14.5024 -17.6543
ltibia 34.3694
lfoot -27.9089 6.55888
ltoes -0.768978
42
root 1.31577 17.0345 0.293045 733.943 -92.1561 -745.541
lowerback 17.2841 -2.28357 1.09933
upperback 1.39568 -3.25468 -3.55648
thorax -8.47152 -1.73745 -3.66707
lowerneck 28.8724 1.73905 6.63107
upperneck 22.393 1.47979 -2.0303
head 2.85123 0.177968 -1.89287
rclavicle -1.60022e-014 -1.98785e-014
rhumerus -107.675 204.777 152.756
rradius 28.8202
rwrist 348.582
rhand -31.9729 7.85087
rfingers 7.12502
rthumb -5.22252 -22.0648
lclavicle -1.60022e-014 -1.98785e-014
lhumerus 65.7911 27.1903 15.8621
lradius 42.0987
lwrist 27.0194
lhand -24.0411 1.64657
lfingers 7.12502
lthumb 2.43768 31.6124
rfemur 10.366 14.7169 13.2559
rtibia 19.6461
rfoot -24.6459 -18.8788
rtoes -12.6896
lfemur 1.84796 -14.5202 -17.6283
ltibia 34.3329
lfoot -27.9185 6.47101
ltoes -0.729258
43
root 1.28928 17.0401 0.289116 734.639 -92.1671 -746.077
lowerback 17.3032 -2.29011 0.965748
upperback 1.25961 -3.28822 -3.54758
thorax -8.6254 -1.74909 -3.57147
lowerneck 30.8474 1.64957 6.73281
upperneck 21.5105 1.47001 -2.07798
head 2.37082 0.155723 -1.92425
rclavicle 2.14936e-014 1.19271e-014
rhumerus -110.224 207.728 156.344
rradius 28.5707
rwrist 347.405
rhand -32.3022 7.02138
rfingers 7.12502
rthumb -5.54055 -22.8862
lclavicle 2.14936e-014 1.19271e-014
lhumerus 63.63 30.2953 12.4922
lradius 41.4343
lwrist 28.3172
lhand -22.8072 1.6002
lfingers 7.12502
lthumb 3.62931 31.5491
rfemur 10.3488 14.7898 13.2517
rtibia 19.57
rfoot -24.732 -18.9027
rtoes -12.6829
lfemur 1.79066 -14.5704 -17.6153
ltibia 34.2911
lfoot -27.9256 6.40548
ltoes -0.655609
